<?xml version="1.0" standalone="no"?>
<!DOCTYPE svg PUBLIC "-//W3C//DTD SVG 20010904//EN"
 "http://www.w3.org/TR/2001/REC-SVG-20010904/DTD/svg10.dtd">
<svg version="1.0" xmlns="http://www.w3.org/2000/svg"
 width="400.000000pt" height="400.000000pt" viewBox="0 0 400.000000 400.000000"
 preserveAspectRatio="xMidYMid meet">

<g transform="translate(0.000000,400.000000) scale(0.100000,-0.100000)"
fill="#000000" stroke="none">
<path d="M1875 3989 c-620 -34 -1200 -372 -1545 -900 -212 -324 -321 -695
-321 -1089 0 -472 153 -901 454 -1269 308 -377 748 -625 1252 -706 134 -22
436 -22 570 0 503 80 944 329 1253 708 236 288 383 623 437 992 21 144 21 406
0 550 -64 436 -263 835 -567 1136 -311 309 -710 507 -1133 563 -148 19 -245
23 -400 15z m458 -222 c537 -118 983 -458 1225 -935 134 -262 192 -508 192
-807 0 -487 -182 -922 -529 -1265 -336 -333 -770 -510 -1246 -510 -477 0 -911
178 -1246 510 -348 345 -529 778 -529 1265 0 506 199 963 567 1304 258 239
555 384 928 452 154 28 476 21 638 -14z"/>
<path d="M1165 2680 c-11 -5 -33 -9 -50 -10 -63 -2 -195 -61 -282 -125 -33
-25 -123 -112 -123 -119 0 -3 -10 -17 -22 -32 -38 -42 -67 -101 -98 -195 -27
-80 -30 -102 -30 -217 0 -70 4 -132 9 -137 5 -6 16 -37 26 -70 29 -102 80
-186 169 -278 36 -36 140 -117 150 -117 3 0 29 -11 58 -24 100 -44 137 -51
288 -51 146 0 177 5 266 45 23 11 53 22 67 26 15 3 31 12 38 20 6 8 17 14 24
14 8 0 15 4 17 8 2 5 23 22 48 39 25 17 60 45 78 63 37 34 36 39 -18 100 -30
35 -110 156 -110 167 0 6 -8 17 -19 27 -17 16 -20 15 -57 -19 -204 -187 -423
-207 -588 -56 -135 125 -139 374 -7 501 81 79 159 105 288 97 115 -7 202 -51
311 -157 89 -87 142 -149 142 -167 0 -7 4 -13 10 -13 5 0 17 -15 26 -32 9 -18
33 -58 53 -88 21 -30 41 -62 45 -70 54 -113 268 -331 397 -404 52 -30 149 -72
199 -87 60 -18 298 -18 365 0 28 7 73 24 102 37 28 13 55 24 58 24 17 0 160
117 193 158 20 26 42 52 48 59 6 6 25 42 43 80 18 37 37 77 43 87 34 64 49
269 27 363 -19 80 -84 233 -101 241 -5 2 -8 9 -8 15 -1 20 -112 130 -185 182
-79 56 -99 67 -170 88 -103 32 -134 37 -219 37 -193 0 -385 -77 -553 -224 -28
-24 -28 -27 -2 -57 27 -32 58 -78 116 -171 26 -43 50 -77 53 -77 3 0 25 18 50
40 108 98 205 139 329 139 94 0 160 -20 222 -69 72 -56 105 -113 130 -223 23
-109 -21 -233 -115 -321 -108 -100 -296 -116 -431 -35 -16 10 -39 22 -50 27
-30 14 -202 185 -209 209 -4 12 -12 22 -17 22 -5 0 -9 6 -9 14 0 8 -4 16 -9
18 -8 3 -91 133 -91 144 0 3 -11 20 -25 38 -14 18 -25 36 -25 39 0 12 -63 107
-71 107 -5 0 -9 5 -9 10 0 10 -44 62 -96 114 -50 50 -97 88 -146 118 -30 18
-62 39 -73 46 -11 6 -27 15 -35 18 -8 3 -24 10 -35 14 -45 19 -93 33 -140 42
-70 14 -236 19 -260 8z"/>
</g>
</svg>
