<?xml version="1.0" standalone="no"?>
<!DOCTYPE svg PUBLIC "-//W3C//DTD SVG 20010904//EN"
 "http://www.w3.org/TR/2001/REC-SVG-20010904/DTD/svg10.dtd">
<svg version="1.0" xmlns="http://www.w3.org/2000/svg"
 width="400.000000pt" height="400.000000pt" viewBox="0 0 400.000000 400.000000"
 preserveAspectRatio="xMidYMid meet">

<g transform="translate(0.000000,400.000000) scale(0.100000,-0.100000)"
fill="#000000" stroke="none">
<path d="M1875 3989 c-620 -34 -1200 -372 -1545 -900 -212 -324 -321 -695
-321 -1089 0 -472 153 -901 454 -1269 308 -377 748 -625 1252 -706 134 -22
436 -22 570 0 503 80 944 329 1253 708 236 288 383 623 437 992 21 144 21 406
0 550 -64 436 -263 835 -567 1136 -311 309 -710 507 -1133 563 -148 19 -245
23 -400 15z m-485 -1254 c150 -28 204 -50 324 -129 141 -95 264 -231 347 -386
27 -50 38 -67 117 -188 94 -144 228 -263 351 -311 158 -63 331 -9 421 130 70
109 77 229 20 345 -78 159 -256 230 -429 173 -74 -24 -123 -54 -206 -125 l-60
-52 -44 76 c-24 42 -68 110 -98 150 -63 85 -65 78 42 157 194 144 411 201 610
161 125 -25 183 -50 281 -118 125 -86 218 -211 268 -360 110 -330 -57 -706
-378 -853 -104 -47 -161 -58 -306 -59 -154 -1 -217 14 -348 84 -144 78 -346
270 -419 400 -141 251 -310 444 -449 514 -192 96 -406 29 -493 -154 -22 -47
-26 -69 -26 -150 0 -81 4 -103 24 -145 70 -143 226 -224 375 -195 81 16 186
72 257 137 31 29 61 53 66 53 5 0 26 -29 46 -64 21 -35 65 -101 99 -147 l62
-82 -40 -35 c-54 -48 -172 -126 -225 -151 -119 -55 -177 -66 -329 -66 -130 1
-152 4 -218 27 -281 101 -463 339 -479 628 -7 114 14 231 57 326 134 297 463
470 780 409z"/>
</g>
</svg>
